<?xml version="1.0" encoding="UTF-8"?>
<svg id="Capa_2" data-name="Capa 2" xmlns="http://www.w3.org/2000/svg" viewBox="0 0 3011.43 1563.33">
  <defs>
    <style>
      .cls-1 {
        font-family: ShowcardGothic-Reg, 'Showcard Gothic';
        font-size: 120px;
      }

      .cls-2 {
        font-family: BerlinSansFBDemi-Bold, 'Berlin Sans FB Demi';
        font-size: 600px;
        font-weight: 700;
      }

      .cls-3 {
        stroke-width: 13px;
      }

      .cls-3, .cls-4 {
        fill: none;
        stroke: #ebb80d;
        stroke-miterlimit: 10;
      }

      .cls-4 {
        stroke-width: 24px;
      }
    </style>
  </defs>
  <ellipse class="cls-4" cx="1414.17" cy="781.66" rx="765" ry="769.66"/>
  <ellipse class="cls-4" cx="1408.73" cy="777" rx="534.1" ry="541.1"/>
  <path class="cls-3" d="m824.87,377.4c27.34,98.14,49.63,146.35,66.86,144.6,8.48-.86,15.74-13.81,21.77-38.87,9.06-7.14,19.34-17.04,17.1-24.88-7.26-25.4-136.73,3.12-147.71-26.43-3.15-8.48,2.64-23.91,41.98-54.42Z"/>
  <path class="cls-3" d="m704.37,628.51c-1.52,5.21-2.8,12.8,0,20.47,5.37,14.75,22.18,19.87,46.65,29.28,32.65,12.56,64.76,24.91,63.75,31.1-1.33,8.15-60.55,7.83-71.52,7.77-30.39-.16-49.12-2.84-55.98,7.77-4.15,6.42-2.28,15.11,0,21.51"/>
  <path class="cls-3" d="m2033.79,606.74c-36.79,24.05-44.22,35.83-41.98,41.98,5.76,15.83,75.59-5.22,91.74,23.32,4.35,7.68,4.8,18.95,0,26.69-14.15,22.81-65.11.68-82.41,23.06-4.79,6.2-8.81,18.16,0,43.54"/>
  <line class="cls-3" x1="856.54" y1="628.51" x2="715.25" y2="556.98"/>
  <line class="cls-3" x1="749.8" y1="493.49" x2="866.34" y2="556.98"/>
  <path class="cls-3" d="m914.28,258.45c-2.28,6.03-7.89,23.34,0,40.17,1.73,3.69,7.23,15.43,16.64,16.71,10.6,1.44,21.22-11.05,20.68-11.78-.3-.41-4.63,1.96-20.21,12.44,15.82,16.73,30.07,28.23,40.43,35.76,6.61,4.81,11.92,8.2,18.66,7.77,14.33-.9,23.18-18.29,24.88-21.77,2.07-2.07,4.15-4.15,6.22-6.22"/>
  <path class="cls-3" d="m1108.64,274c-15.03-18.14-30.06-36.28-45.09-54.42,16.74-5.7,25.04-8.81,24.88-9.33-.16-.51-8.45,1.48-24.88,5.97-9.14-11.34-17.4-19.35-23.32-24.63-6.05-5.38-10.44-8.61-10.88-13.99-.43-5.25,3.14-9.54,10.88-17.1,20.05-19.59,30.07-29.39,40.43-27.99,5.3.72,8.71,3.59,15.55,9.33,3.25,2.73,32.54,27.82,24.88,45.09-1.11,2.5-4.16,7.47-13.99,10.88"/>
  <path class="cls-3" d="m1234.58,214.91c-8.46-27.27-16.93-54.54-25.39-81.82,17.46-9.57,19.53-12.19,19.17-13.03-.36-.83-3.63-1.12-21.77,4.66-11.2-19.69-10.75-27.63-7.77-31.1,2.14-2.5,5.23-2.27,12.44-4.66,8.25-2.74,14.52-6.48,18.66-9.33"/>
  <path class="cls-3" d="m1376.08,64.09c-1,39.47-1.84,72.12-3.11,99.51-.36,7.8-1.08,21.99,7.77,29.54,6.33,5.4,15.54,5.71,31.1,6.22,9.47.31,14.2.47,18.66-1.55,13.36-6.07,16.48-23.88,17.1-27.99-1.04-5.18-2.07-10.37-3.11-15.55-.56-2.78-1.51-6.23-1.55-6.22-.04,0,.53,2.68,3.11,13.99"/>
  <path class="cls-3" d="m1514.46,202.47c2.99,2,29.76,19.56,45.09,9.33,5.12-3.42,7.43-8.91,10.88-17.1,8.75-20.77,3.53-30.73,10.88-35.76,5.79-3.96,14.23-1.09,31.1,4.66,9.87,3.36,14.85,5.13,17.1,9.33,3.32,6.18-.57,12.31-6.22,29.54-6.33,19.31-7.35,29.64-7.77,29.54-.93-.2-4.87-50.8,24.88-85.52,11.33-13.23,25.23-21.44,23.32-32.65-1.44-8.43-11.02-13.87-18.66-17.1"/>
  <path class="cls-3" d="m1725.92,144.94c-1.28-.6-12.66,13.55-9.33,24.88,1.93,6.56,7.11,6.48,10.88,12.44,9.68,15.26-6.61,43.66-21.77,59.09-7.22,7.35-15.03,15.29-24.88,13.99-12.06-1.58-18.13-15.82-18.66-17.1-5.13-12.51-.07-24.53,4.66-35.76,4.11-9.76,11.45-27.19,24.88-29.54,7.79-1.37,10.43,3.6,17.1,1.55,13.34-4.09,18.62-28.84,17.1-29.54Z"/>
  <path class="cls-3" d="m1778.79,169.82c1.84.01,13.55.29,20.21,9.33,3.87,5.26,6.4,13.98,3.11,17.1-3.83,3.63-15.44-.38-20.21-7.77-3.29-5.09-2.76-10.9-3.11-10.88-.52.03.89,12.88,0,23.32-2.4,28.23-21.22,34.07-40.43,69.97-1.74,3.24-5.35,10.24-12.44,12.44-7.57,2.35-15.44-1.9-15.55-1.55-.13.4,11.92,3.27,21.43,9.46,11.05,7.19,17.09,17.83,20.55,26.31,0,0,0,0,0,0,7.31,8.77,13.82,9.45,24.88,17.1,5.26,3.64,5.75,4.85,7.77,4.66,6.84-.63,13.45-15.57,9.33-20.21-3.26-3.67-12.98-.62-18.66,3.11-5.31,3.49-8.05,8.22-9.33,10.88"/>
  <path class="cls-3" d="m1907.84,256.89c2.17-2.66,46.49,24.98,41.98,40.43-2.33,7.99-16.4,8.2-18.66,18.66-1.45,6.74,3.66,10.03,6.22,18.66,4.23,14.29-.53,36.63-17.1,46.65-11.93,7.21-30.44,8.32-43.54-3.11-13.26-11.57-15.68-31.37-7.77-45.09,5.31-9.22,15.82-16.63,26.43-17.1,8.34-.37,11.42,3.78,27.99,4.66,8.25.44,11.45-.38,13.99-1.55,6.87-3.17,7.49-8.21,12.44-9.33,8.16-1.84,16.91,9.52,17.1,9.33.48-.47-61.87-58.78-59.09-62.2Z"/>
  <path class="cls-3" d="m1998.03,362.62c3.14,1.02-.15,8,4.66,18.66,8.76,19.37,28.93,16.83,37.32,35.76,2.93,6.62,5.08,17.34,0,23.32-6.89,8.11-24.29,4.22-34.21,0-20.41-8.68-20.03-23.39-31.1-24.88-23.91-3.21-43.15,63.03-63.75,59.09-8.23-1.58-15.02-14.05-12.44-18.66,2.3-4.13,11.82-1.48,18.66-1.55,40.15-.44,69.53-95.4,80.85-91.74Z"/>
  <path class="cls-3" d="m2001.14,852.41c1.62,15.61,1.7,38.28-7.77,62.2-13.41,33.82-36.49,46.31-31.1,60.64,4.5,11.97,23.42,10.75,57.53,21.77,26.96,8.71,47.54,19.92,60.64,27.99"/>
  <path class="cls-3" d="m2044.67,1108.97c-4.06-.02-10.26-.5-17.1-3.11-14.62-5.58-16.91-15.04-24.88-15.55-11.38-.72-26.61,17.3-26.43,35.76.2,21.25,20.78,40.22,31.1,37.32,5.07-1.42,8.7-8.42,7.77-13.99-2.08-12.59-28.5-24.91-48.2-15.55-12.44,5.91-20.77,19.78-20.21,34.21.65,16.85,13.32,31.79,31.1,35.76"/>
  <path class="cls-3" d="m1791.23,1224.03c5.93-2.62,15.26-7.38,24.88-15.55,20.83-17.68,23.51-34.77,32.65-34.21,9.45.58,19.2,19.61,17.1,35.76-2.04,15.73-15.08,27.07-13.99,27.99,1,.84,8.37-11.72,20.21-13.99,13.07-2.5,29.45,7.95,35.76,21.77,8.91,19.49-4.82,39.96-12.44,51.31-5.41,8.06-10.04,14.75-18.66,17.1-14.05,3.83-31.78-5.77-34.21-17.1-2.41-11.26,11.11-20.39,7.77-24.88-3.02-4.06-17.83-1.66-21.77,6.22-5.48,10.97,11.92,28.95,13.99,31.1,12.35,12.77,23.01,13.47,23.32,20.21.47,10.12-23.01,19.2-23.32,18.66-.28-.47,17.26-7.71,38.87-26.43,21.75-18.84,43.57-37.75,40.43-59.09-.66-4.45-3.62-17.25-23.32-29.54"/>
  <path class="cls-3" d="m1626.41,1363.97c.96-2.9,5.91-16.86,20.21-23.32,10.11-4.57,25.81-5.81,31.1,1.55,4.17,5.81-.82,13.25-7.77,34.21-6.82,20.55-15.99,48.2-7.77,54.42,5.5,4.16,17.47-2.25,24.88-6.22,6.52-3.49,13.02-6.97,17.1-13.99,7.45-12.8-2.05-22.04,4.66-32.65,6.44-10.17,23.41-14.7,32.65-9.33,8.12,4.72,5.93,14.58,12.44,17.1,11.83,4.6,33.53-22.42,32.65-23.32-1.25-1.3-52.8,46.72-52.87,46.65-.02-.03,7.91-6.9,23.32-20.21"/>
  <path class="cls-3" d="m1481.81,1367.08c8.43-14.2,19.79-19.94,24.88-17.1,3.31,1.85,3.54,7.95,3.11,20.21-.83,23.81-2.92,41.89-3.11,43.54-.34,2.99-5.71,55.34,20.21,71.52,10.53,6.57,27.89,8.23,38.87-1.55,10.24-9.13,12.48-26.02,6.22-35.76-7.88-12.25-28.16-11.55-27.99-12.44.14-.73,14.22-2.48,23.32,6.22,10.54,10.07,10.76,30.65-1.55,41.98-10.11,9.3-29.95,4.76-40.43,0-5.66-2.57-8.78-5.4-13.99-4.66-9.97,1.4-17.71,14.42-15.55,17.1,1.35,1.68,7.55.56,29.54-12.44"/>
  <path class="cls-3" d="m1240.8,1412.17c-1.93-.8,17.56-57.91,26.43-55.98,5.18,1.13.84,21.09,12.44,27.99,5.38,3.2,8.42.16,23.32,0,16.63-.18,16.85,3.56,37.32,4.66,16.08.87,21.25-1.15,24.88,3.11,5.18,6.09,2.59,19.62-3.11,21.77-5.9,2.23-10.34-9.53-26.43-18.66-13.92-7.89-27.09-8.45-48.2-9.33-13.76-.58-20.79-.78-27.99,3.11-14.18,7.67-17.66,23.74-18.66,23.32Z"/>
  <path class="cls-3" d="m1097.75,1283.11c4.03,1.44-.32,11.06,6.22,18.66,12.4,14.41,42.8-2.98,51.31,7.77,8.88,11.23-10.33,47.71-24.88,46.65-12.37-.9-11.55-28.22-26.43-31.1-21.29-4.11-45.14,47.47-59.09,62.2-.83.88-3.05,3.13-3.11,6.22-.1,4.96,5.44,7.66,4.66,9.33-.98,2.12-11.84,2.04-15.55-3.11-5.07-7.04,4.95-21.21,17.1-40.43,31.12-49.22,42.77-78.69,49.76-76.19Z"/>
  <path class="cls-3" d="m1034,1228.69c3.91-1.18,15.01,17.33,15.55,37.32.16,6,.22,10.98-3.11,13.99-6.39,5.77-16.73-3.37-34.21-4.66-29.68-2.2-55.12,20.05-55.98,29.54-.1,1.05-.03,3.54-1.55,6.22-2.71,4.76-7.73,5.34-7.77,7.77-.04,2.32,4.48,4.11,5.71,4.64,14.95,6.43,14.38,28.32,26.94,34.23,13.37,6.3,30.37-10.82,32.65-7.77,2.51,3.35-14.71,28.53-31.1,26.43-11.8-1.51-10.32-15.53-34.21-37.32-9.65-8.8-16.2-12.27-17.1-20.21-.75-6.62,2.85-12.52,10.88-21.77,21.8-25.11,35.55-40.94,54.42-40.43,17.99.49,26.42,15.45,34.21,10.88,10.7-6.27-.25-37.39,4.66-38.87Z"/>
  <path class="cls-3" d="m684.16,816.65c-6.58,6.2-3.61,19.73,1.55,21.77,4.54,1.79,8.69-6.12,18.66-12.44,4.46-2.82,10.49-5.59,52.87-6.22,36.51-.54,42.9,1.35,48.2,6.22,5.41,4.97,7.92,11.43,12.44,10.88,6.31-.76,9.08-14.26,9.33-15.55,1.78-9.1.38-22-4.66-23.32-6.1-1.6-9.21,15.93-24.88,23.32-12.35,5.83-17.06-1.93-40.43-1.55-27.88.45-47.63,11.91-54.42,3.11-2.21-2.87-2.1-6.65-5.94-8.58-3.97-1.99-9.51-.67-12.72,2.36Z"/>
  <path class="cls-3" d="m897.17,1248.91c.67.83,19.45-14.19,38.87-27.99,31.6-22.45,41.9-25.34,41.98-34.21.13-13.59-23.88-24.59-38.87-27.99-8.55-1.94-23.74-5.38-31.1,3.11-7.37,8.51-3.74,25.39,4.66,34.21,7.37,7.73,14.86,5.53,17.1,10.88,5.5,13.14-33.59,40.81-32.65,41.98Z"/>
  <text class="cls-1" transform="translate(505.3 662.58)"><tspan x="0" y="0">Yugioh!</tspan></text>
  <text class="cls-2" transform="translate(0 1136.07)"><tspan x="0" y="0">Card Trade</tspan></text>
</svg>